<?xml version="1.0" standalone="no"?>
<!DOCTYPE svg PUBLIC "-//W3C//DTD SVG 20010904//EN"
 "http://www.w3.org/TR/2001/REC-SVG-20010904/DTD/svg10.dtd">
<svg version="1.0" xmlns="http://www.w3.org/2000/svg"
 width="1024.000000pt" height="1024.000000pt" viewBox="0 0 1024.000000 1024.000000"
 preserveAspectRatio="xMidYMid meet">
<metadata>
Created by potrace 1.11, written by Peter Selinger 2001-2013
</metadata>
<g transform="translate(0.000000,1024.000000) scale(0.100000,-0.100000)"
fill="#000000" stroke="none">
<path d="M3052 9492 c18 -32 186 -324 373 -650 l340 -592 1369 3 1368 2 369
640 c202 352 368 643 369 648 0 4 -950 7 -2111 7 l-2110 0 33 -58z"/>
<path d="M1302 7356 c-595 -1030 -1082 -1876 -1082 -1880 0 -3 339 -5 752 -4
l753 3 708 1227 708 1227 -373 650 c-205 358 -376 651 -379 651 -3 0 -492
-843 -1087 -1874z"/>
<path d="M7501 8583 c-205 -355 -371 -652 -369 -659 2 -6 320 -561 708 -1233
l705 -1221 753 0 c415 0 752 4 750 8 -11 29 -2164 3751 -2170 3752 -3 0 -173
-291 -377 -647z"/>
<path d="M222 4756 c2 -8 482 -845 1068 -1860 798 -1381 1068 -1842 1076
-1833 6 7 177 300 378 652 356 619 367 640 353 665 -8 14 -322 557 -697 1208
l-682 1182 -750 0 c-644 0 -749 -2 -746 -14z"/>
<path d="M8536 4748 c-90 -144 -1370 -2378 -1371 -2393 0 -26 737 -1307 746
-1298 10 10 2128 3678 2135 3698 5 13 -82 15 -745 15 l-751 0 -14 -22z"/>
<path d="M3714 1982 c-6 -4 -178 -297 -382 -652 l-371 -645 2166 -3 c1192 -1
2168 0 2171 2 6 6 -718 1266 -740 1288 -17 17 -95 18 -1425 18 -775 0 -1413
-4 -1419 -8z"/>
</g>
</svg>
