<?xml version="1.0" standalone="no"?>
<!DOCTYPE svg PUBLIC "-//W3C//DTD SVG 20010904//EN"
 "http://www.w3.org/TR/2001/REC-SVG-20010904/DTD/svg10.dtd">
<svg version="1.0" xmlns="http://www.w3.org/2000/svg"
 width="1024.000000pt" height="1024.000000pt" viewBox="0 0 1024.000000 1024.000000"
 preserveAspectRatio="xMidYMid meet">
<metadata>
Created by potrace 1.11, written by Peter Selinger 2001-2013
</metadata>
<g transform="translate(0.000000,1024.000000) scale(0.100000,-0.100000)"
fill="#000000" stroke="none">
<path d="M3048 9518 c11 -18 169 -294 352 -613 184 -319 344 -597 357 -618
l23 -37 1357 2 1357 3 184 320 c101 176 269 467 372 648 l189 327 -2106 0
-2105 0 20 -32z"/>
<path d="M1307 7356 c-592 -1026 -1077 -1870 -1077 -1876 0 -12 1468 -14 1486
-2 23 16 1416 2444 1410 2458 -10 25 -718 1258 -731 1272 -9 10 -243 -387
-1088 -1852z"/>
<path d="M7510 8583 c-201 -350 -366 -643 -368 -652 -2 -10 314 -566 701
-1236 l704 -1220 748 -3 c709 -2 747 -1 740 15 -10 29 -2150 3733 -2155 3732
-3 0 -169 -286 -370 -636z"/>
<path d="M232 4746 c7 -29 2123 -3684 2130 -3678 12 13 738 1281 738 1290 0 5
-310 547 -689 1203 l-690 1194 -746 3 c-628 2 -746 0 -743 -12z"/>
<path d="M8543 4748 c-6 -7 -317 -545 -693 -1196 -434 -752 -680 -1190 -677
-1201 8 -32 730 -1282 739 -1279 7 3 2114 3645 2125 3675 7 19 -1480 19 -1494
1z"/>
<path d="M3350 1344 c-201 -350 -366 -642 -368 -650 -3 -12 301 -14 2152 -14
1186 0 2156 4 2156 8 0 4 -165 295 -368 647 l-367 640 -1420 2 -1420 3 -365
-636z"/>
</g>
</svg>
